<svg xmlns="http://www.w3.org/2000/svg" viewBox="0 0 65.41 21.65"><defs><style>.cls-1,.cls-3{fill:#fff;}.cls-1,.cls-2{stroke:#fff;stroke-miterlimit:10;}.cls-2{fill:#99f8ff;stroke-width:2px;}.cls-3{font-size:12px;font-family:Eina03-SemiBold, "Eina 03";font-weight:600;}.cls-4{letter-spacing:-0.06em;}.cls-5{letter-spacing:-0.02em;}.cls-6{letter-spacing:-0.03em;}</style></defs><g id="Layer_2" data-name="Layer 2"><g id="Layer_1-2" data-name="Layer 1"><path class="cls-1" d="M17.82,4c-1.7-3.7-9-7.3-7.7,4.9,0,.3-.1.5.1.7l.7.9a.63.63,0,0,0,.9.1c.7-.5.4-2.2,2.9-2.3C17.52,8,19.92,8.72,17.82,4Z"/><path class="cls-1" d="M3.82,17.62c1.7,3.7,9,7.3,7.7-4.9,0-.3.1-.5-.1-.7l-.7-.9a.63.63,0,0,0-.9-.1c-.7.5-.4,2.2-2.9,2.3C4.12,13.52,1.72,12.82,3.82,17.62Z"/><path class="cls-1" d="M17.62,17.82c3.7-1.7,7.3-9.1-4.9-7.7-.3,0-.5-.1-.7.1l-.9.7a.62.62,0,0,0-.1.8c.5.7,2.2.3,2.3,2.9C13.52,17.52,12.92,19.92,17.62,17.82Z"/><path class="cls-1" d="M4,3.82c-3.7,1.7-7.3,9.1,4.9,7.7.3,0,.5.1.7-.1l.9-.7a.63.63,0,0,0,.1-.9c-.5-.7-2.2-.3-2.3-2.9C8.12,4.12,8.82,1.62,4,3.82Z"/><circle class="cls-2" cx="11.02" cy="11.12" r="1.8"/><text class="cls-3" transform="translate(27.67 15.3)"><tspan class="cls-4">S</tspan><tspan class="cls-5" x="6.91" y="0">kú</tspan><tspan class="cls-6" x="20.3" y="0">t</tspan><tspan class="cls-4" x="23.6" y="0">a</tspan><tspan x="30.5" y="0">n</tspan></text></g></g></svg>