<?xml version="1.0" encoding="utf-8"?>
<!-- Generator: Adobe Illustrator 22.0.0, SVG Export Plug-In . SVG Version: 6.00 Build 0)  -->
<svg version="1.1" id="Layer_1" xmlns="http://www.w3.org/2000/svg" xmlns:xlink="http://www.w3.org/1999/xlink" x="0px" y="0px"
	 viewBox="0 0 77.9 36.1" style="enable-background:new 0 0 77.9 36.1;" xml:space="preserve">
<style type="text/css">
	.st0{fill:#163C5B;}
	.st1{fill:#FFFFFF;stroke:#FFFFFF;stroke-miterlimit:10;}
	.st2{fill:#102C4E;}
	.st3{fill:#163C5B;stroke:#FFFFFF;stroke-width:2;stroke-miterlimit:10;}
</style>
<title>Asset 2</title>
<circle class="st0" cx="18" cy="18" r="13.4"/>
<path class="st1" d="M24.8,10.9c-1.7-3.7-9-7.3-7.7,4.9c0,0.3-0.1,0.5,0.1,0.7l0.7,0.9c0.2,0.3,0.6,0.3,0.9,0.1
	c0.7-0.5,0.4-2.2,2.9-2.3C24.5,14.9,26.9,15.6,24.8,10.9z"/>
<path class="st1" d="M10.8,24.5c1.7,3.7,9,7.3,7.7-4.9c0-0.3,0.1-0.5-0.1-0.7L17.7,18c-0.2-0.3-0.6-0.3-0.9-0.1
	c-0.7,0.5-0.4,2.2-2.9,2.3C11.1,20.4,8.7,19.7,10.8,24.5z"/>
<path class="st1" d="M24.6,24.7c3.7-1.7,7.3-9.1-4.9-7.7c-0.3,0-0.5-0.1-0.7,0.1l-0.9,0.7c-0.2,0.2-0.3,0.6-0.1,0.8
	c0.5,0.7,2.2,0.3,2.3,2.9C20.5,24.4,19.9,26.8,24.6,24.7z"/>
<path class="st1" d="M11,10.7c-3.7,1.7-7.3,9.1,4.9,7.7c0.3,0,0.5,0.1,0.7-0.1l0.9-0.7c0.3-0.2,0.3-0.6,0.1-0.9
	c-0.5-0.7-2.2-0.3-2.3-2.9C15.1,11,15.8,8.5,11,10.7z"/>
<path class="st2" d="M42.7,20.1c0.4,0,0.9-0.1,1.2-0.3c0.3-0.2,0.4-0.5,0.4-0.8c0-0.2-0.1-0.5-0.2-0.6c-0.2-0.2-0.4-0.3-0.6-0.4
	c-0.3-0.1-0.6-0.2-0.8-0.2c-0.3-0.1-0.6-0.1-0.9-0.2c-0.3-0.1-0.6-0.2-0.8-0.4c-0.3-0.2-0.5-0.4-0.6-0.7c-0.2-0.3-0.3-0.7-0.3-1.1
	c0-0.6,0.3-1.2,0.8-1.6c1.2-0.9,2.9-0.9,4.1,0c0.5,0.5,0.8,1.2,0.8,1.9h-1.3c0-0.4-0.1-0.7-0.4-1c-0.3-0.3-0.7-0.4-1.1-0.4
	c-0.4,0-0.8,0.1-1.1,0.3c-0.3,0.2-0.4,0.5-0.4,0.8c0,0.2,0.1,0.4,0.2,0.6c0.2,0.2,0.4,0.3,0.6,0.3l0.9,0.2c0.3,0.1,0.6,0.1,0.9,0.2
	c0.3,0.1,0.6,0.2,0.8,0.4c0.3,0.2,0.5,0.4,0.6,0.7c0.2,0.3,0.3,0.7,0.2,1.1c0,0.7-0.3,1.3-0.8,1.7c-0.7,0.5-1.4,0.7-2.2,0.6
	c-0.8,0.1-1.6-0.2-2.2-0.8c-0.5-0.5-0.7-1.1-0.8-1.8H41c0,0.4,0.2,0.7,0.5,1C41.8,19.9,42.2,20.1,42.7,20.1z"/>
<path class="st2" d="M50.8,15.4h1.6l-2.2,2.4l2.4,3.3H51l-1.7-2.4l-1,1.1v1.4H47v-8.2h1.3v5.3L50.8,15.4z"/>
<path class="st2" d="M55.7,20.1c0.8,0,1.2-0.4,1.2-1.3v-3.3h1.3v3.3c0,0.7-0.2,1.3-0.6,1.9c-1.1,0.9-2.7,0.9-3.8,0
	c-0.4-0.5-0.6-1.2-0.6-1.9v-3.3h1.3v3.3C54.5,19.7,54.8,20.1,55.7,20.1z M55.7,12.8H57l-0.9,1.9H55L55.7,12.8z"/>
<path class="st2" d="M61.2,16.5v4.6h-1.3v-4.6H59v-1h0.9V14h1.3v1.5h1v1L61.2,16.5z"/>
<path class="st2" d="M67.1,15.4h1.2v5.7h-1.2v-0.8c-0.4,0.6-1.2,1-1.9,0.9c-0.7,0-1.4-0.3-1.9-0.9c-0.5-0.6-0.7-1.4-0.7-2.1
	c0-0.8,0.2-1.5,0.7-2.1c0.5-0.6,1.2-0.9,1.9-0.8c0.8-0.1,1.5,0.3,1.9,0.9V15.4z M64.3,17c-0.6,0.8-0.6,1.8,0,2.6
	c0.3,0.3,0.7,0.5,1.2,0.5c0.4,0,0.9-0.2,1.2-0.5c0.6-0.8,0.6-1.8,0-2.6c-0.3-0.3-0.7-0.5-1.2-0.5C65,16.5,64.6,16.7,64.3,17z"/>
<path class="st2" d="M71.1,15.4v0.8c0.2-0.3,0.4-0.5,0.7-0.6c0.3-0.2,0.7-0.3,1.1-0.3c0.6,0,1.2,0.2,1.6,0.6c0.4,0.5,0.6,1,0.6,1.6
	v3.6h-1.3v-3.4c0-0.3-0.1-0.7-0.3-1c-0.2-0.2-0.5-0.4-0.8-0.3c-0.4,0-0.7,0.1-1,0.4c-0.2,0.3-0.4,0.6-0.3,1v3.3h-1.3v-5.7H71.1z"/>
<circle class="st3" cx="18" cy="18" r="1.8"/>
</svg>
